:version 1.10
:name ASF
:units
  mass 1
  length 1
  angle deg
:documentation
  ASF file generated by Kaydara
:root
  axis xyz
  order  tx ty tz rx ry rz
  position 0 0 0
  orientation 0 0 0
:bonedata
  begin
    id 1
    name SpineDummy
    direction 0.999998 -0.00179978 1.38929e-006
    length 3.60008
    axis 0 0 0 xyz
  end
  begin
    id 2
    name Spine
    direction 0.964365 0.262802 0.0305839
    length 8.13928
    axis 1.33928 -1.75354 15.2838 xyz
    dof rx ry rz
  end
  begin
    id 3
    name Spine1
    direction 0.811168 0.572065 0.12144
    length 7.14954
    axis 2.2224 -6.9761 35.2157 xyz
    dof rx ry rz
  end
  begin
    id 4
    name Neck
    direction 0 0 0
    length 0
    axis 2.2224 -6.9761 35.2157 xyz
    dof rx ry rz
  end
  begin
    id 5
    name HeadDummy
    direction 0.810939 0.572387 0.121455
    length 3.55534
    axis 2.2224 -6.9761 35.2157 xyz
  end
  begin
    id 6
    name Head
    direction 0.998226 -0.000232542 0.0595419
    length 7.35666
    axis -3.03688 -3.41352 -0.0133467 xyz
    dof rx ry rz
  end
  begin
    id 7
    name R_ClavicleDummy
    direction 0.531669 -0.194489 -0.824319
    length 2.49392
    axis 2.2224 -6.9761 35.2157 xyz
  end
  begin
    id 8
    name R_Clavicle
    direction -0.155119 0.0480802 -0.986725
    length 4.485
    axis -54.2764 80.6538 162.779 xyz
    dof rx ry rz
  end
  begin
    id 9
    name R_UpperArm
    direction -0.955567 0.200068 -0.216484
    length 10.1122
    axis -72.9943 12.5026 168.175 xyz
    dof rx ry rz
  end
  begin
    id 10
    name R_Forearm
    direction -0.61433 0.385743 0.688332
    length 9.39148
    axis -117.015 -43.4982 147.875 xyz
    dof rx ry rz
  end
  begin
    id 11
    name R_Hand
    direction -0.699429 0.0170333 0.714499
    length 3.66324
    axis -45.0303 -36.7097 175.478 xyz
    dof rx ry rz
  end
  begin
    id 12
    name L_ClavicleDummy
    direction 0.40287 -0.36502 0.839319
    length 2.49392
    axis 2.2224 -6.9761 35.2157 xyz
  end
  begin
    id 13
    name L_Clavicle
    direction -0.231271 -0.0726419 0.970174
    length 4.485
    axis 18.4357 -75.9711 -162.563 xyz
    dof rx ry rz
  end
  begin
    id 14
    name L_UpperArm
    direction -0.917494 0.144359 0.370629
    length 10.1122
    axis 56.0417 -21.7544 171.058 xyz
    dof rx ry rz
  end
  begin
    id 15
    name L_Forearm
    direction -0.496786 0.615074 -0.612281
    length 9.39148
    axis 89.8094 37.7546 128.927 xyz
    dof rx ry rz
  end
  begin
    id 16
    name L_Hand
    direction -0.409932 0.64962 -0.640274
    length 3.66324
    axis -0.424369 32.133 128.52 xyz
    dof rx ry rz
  end
  begin
    id 17
    name L_ThighDummy
    direction -1.84081e-006 1.87549e-006 1
    length 3.13049
    axis 0 0 0 xyz
  end
  begin
    id 18
    name L_Thigh
    direction -0.947739 0.307978 0.083308
    length 17.9961
    axis 173.219 -4.77873 161.998 xyz
    dof rx ry rz
  end
  begin
    id 19
    name L_Calf
    direction -0.728814 -0.684427 0.0197583
    length 13.3367
    axis 167.331 -1.13214 -136.799 xyz
    dof rx ry rz
  end
  begin
    id 20
    name L_Foot
    direction -0.9028 0.418719 0.0981191
    length 5.8674
    axis 163.436 11.5135 -155.37 xyz
    dof rx ry rz
  end
  begin
    id 21
    name L_Toe0
    direction -0.35341 0.886259 0.299411
    length 4.75286
    axis 169.316 -17.4222 111.74 xyz
    dof rx ry rz
  end
  begin
    id 22
    name R_ThighDummy
    direction 9.32778e-007 -8.82053e-007 -1
    length 3.13049
    axis 0 0 0 xyz
  end
  begin
    id 23
    name R_Thigh
    direction -0.925064 0.37528 -0.0585023
    length 17.9961
    axis -178.698 3.35385 157.919 xyz
    dof rx ry rz
  end
  begin
    id 24
    name R_Calf
    direction -0.68969 -0.718776 -0.0876886
    length 13.3367
    axis -160.504 5.03065 -133.817 xyz
    dof rx ry rz
  end
  begin
    id 25
    name R_Foot
    direction -0.857405 0.418858 -0.299022
    length 5.8674
    axis -161.328 4.38911 -154.413 xyz
    dof rx ry rz
  end
  begin
    id 26
    name R_Toe0
    direction -0.100745 0.952789 -0.286433
    length 4.75286
    axis 171.683 16.6445 96.0359 xyz
    dof rx ry rz
  end
:hierarchy
  begin
    root SpineDummy L_ThighDummy R_ThighDummy
    SpineDummy Spine
    Spine Spine1
    Spine1 Neck
    Neck HeadDummy R_ClavicleDummy L_ClavicleDummy
    HeadDummy Head
    R_ClavicleDummy R_Clavicle
    R_Clavicle R_UpperArm
    R_UpperArm R_Forearm
    R_Forearm R_Hand
    L_ClavicleDummy L_Clavicle
    L_Clavicle L_UpperArm
    L_UpperArm L_Forearm
    L_Forearm L_Hand
    L_ThighDummy L_Thigh
    L_Thigh L_Calf
    L_Calf L_Foot
    L_Foot L_Toe0
    R_ThighDummy R_Thigh
    R_Thigh R_Calf
    R_Calf R_Foot
    R_Foot R_Toe0
  end

:SAMPLES-PER-SECOND 30
:FULLY-SPECIFIED
:DEGREES
228
root  -14.2185 29.7111 7.64371 -105.471 -5.0399 80.8657
Spine  -12.9855 -15.6115 -1.43637
Spine1  -12.0472 23.2578 -6.65006
Neck  3.97569e-016 0 -2.38542e-015
Head  31.3068 7.96011 -4.35946
R_Clavicle  0.410032 -19.8262 1.59163
R_UpperArm  13.6787 -8.14466 59.3581
R_Forearm  30.5822 3.06262 -2.5746
R_Hand  -0.369825 4.0133 -11.5247
L_Clavicle  -0.419235 15.0008 -0.454601
L_UpperArm  4.64782 -2.24704 -2.03804
L_Forearm  -7.48837 6.62646 7.69887
L_Hand  -0.227091 6.07876 -2.02189
L_Thigh  6.13632 25.043 -14.542
L_Calf  -1.11699 -0.158626 0.862025
L_Foot  0.505483 2.52342 -0.529944
L_Toe0  0.513372 0.0343819 -6.12883
R_Thigh  12.0198 6.35471 3.036
R_Calf  13.0031 1.45919 4.67017
R_Foot  -7.61229 -10.837 19.8267
R_Toe0  0.367395 -0.288493 -16.3095
229
root  -14.4864 31.1484 8.61905 -105.755 -3.42887 80.6916
Spine  -15.5346 -18.113 -2.18092
Spine1  -14.8948 26.3272 -8.58209
Neck  3.97569e-016 0 -2.38542e-015
Head  34.9954 6.86016 -0.71312
R_Clavicle  0.425015 -18.5264 2.21825
R_UpperArm  12.2064 -8.433 60.4628
R_Forearm  26.4314 12.141 -10.3229
R_Hand  -0.143883 2.74149 -7.54703
L_Clavicle  -0.390442 14.1119 -0.419195
L_UpperArm  8.7291 -0.124181 -2.34092
L_Forearm  -8.7358 7.60788 8.86535
L_Hand  0.0614185 8.02175 0.732515
L_Thigh  5.22405 21.21 -20.119
L_Calf  0.450981 0.31462 -2.59888
L_Foot  0.950211 3.72765 0.135773
L_Toe0  0.512266 0.0343905 -6.1298
R_Thigh  11.6891 5.957 3.15477
R_Calf  9.75446 4.19371 13.2676
R_Foot  -6.62488 -14.6744 9.3953
R_Toe0  1.63012 -0.35867 -13.6607
230
root  -14.7351 32.9001 9.77219 -107.541 -1.20401 80.3682
Spine  -16.4397 -19.5321 -3.76717
Spine1  -16.5448 27.8229 -10.7486
Neck  3.97569e-016 0 -2.38542e-015
Head  37.3403 5.59689 2.66856
R_Clavicle  0.429205 -17.7746 2.30952
R_UpperArm  10.9419 -9.18167 60.0778
R_Forearm  24.3338 18.2992 -15.9731
R_Hand  -0.0216224 2.53208 -5.81233
L_Clavicle  -0.353367 13.0229 -0.477222
L_UpperArm  12.4758 2.79364 -3.00713
L_Forearm  -12.0043 9.2015 10.7779
L_Hand  0.324638 9.52395 2.67611
L_Thigh  0.055861 16.878 -24.018
L_Calf  3.81979 0.146464 -1.38212
L_Foot  0.206341 1.51184 -0.80132
L_Toe0  0.511083 0.0343998 -6.13085
R_Thigh  10.7692 5.48777 3.02567
R_Calf  2.13113 7.60614 24.6226
R_Foot  -2.22794 -15.7094 -8.7305
R_Toe0  -0.797769 0.0325635 -5.69952
231
root  -15.0488 34.5409 11.0737 -109.448 1.31743 80.4075
Spine  -16.2651 -19.3588 -6.42414
Spine1  -16.9836 28.029 -11.4837
Neck  3.97569e-016 0 -2.38542e-015
Head  38.7536 4.69856 5.63773
R_Clavicle  0.410505 -17.8805 1.85262
R_UpperArm  10.2008 -10.1147 58.8526
R_Forearm  21.1557 22.5342 -20.1879
R_Hand  0.0815543 3.04502 -5.42313
L_Clavicle  -0.315029 12.1178 -0.716326
L_UpperArm  15.283 5.40248 -3.33017
L_Forearm  -16.6578 9.97238 11.7141
L_Hand  0.380094 10.258 2.97981
L_Thigh  -5.20152 12.7664 -26.0682
L_Calf  8.39548 -0.489459 3.21638
L_Foot  -1.01503 -2.14301 -2.65194
L_Toe0  0.509876 0.0344092 -6.13192
R_Thigh  9.34138 4.97796 2.82932
R_Calf  -6.38753 11.1037 36.459
R_Foot  2.1388 -10.2714 -26.798
R_Toe0  -8.64751 1.7774 -4.10974
232
root  -15.3817 35.727 12.3754 -110.379 3.61385 80.429
Spine  -15.6276 -18.7405 -10.0704
Spine1  -16.5236 27.5437 -10.1436
Neck  3.97569e-016 0 -2.38542e-015
Head  39.65 4.32189 7.0169
R_Clavicle  0.396259 -18.2203 1.44071
R_UpperArm  9.9771 -10.9609 56.4348
R_Forearm  16.1326 25.6653 -23.5505
R_Hand  0.189672 3.59052 -5.04783
L_Clavicle  -0.285477 11.6529 -1.05568
L_UpperArm  16.7167 6.98988 -3.13769
L_Forearm  -20.1933 9.18841 10.7649
L_Hand  0.337468 10.8785 2.59048
L_Thigh  -7.9052 8.78307 -26.9251
L_Calf  11.7407 -1.33251 9.37796
L_Foot  -1.83809 -4.17185 -4.86887
L_Toe0  0.508699 0.0344184 -6.13296
R_Thigh  5.61024 3.03093 4.29487
R_Calf  -9.4891 13.7187 42.64
R_Foot  4.06219 5.25198 -38.249
R_Toe0  -13.5031 2.30223 -7.57383
233
root  -15.6726 36.4471 13.6408 -110.492 5.45281 80.6927
Spine  -14.8042 -17.5442 -13.2177
Spine1  -15.8367 26.5097 -8.73144
Neck  3.97569e-016 0 -2.38542e-015
Head  40.47 4.12899 6.96751
R_Clavicle  0.389817 -17.9606 1.32078
R_UpperArm  9.67956 -12.1782 52.7217
R_Forearm  12.2206 27.8561 -26.0631
R_Hand  0.283273 4.39435 -5.23815
L_Clavicle  -0.269615 11.5459 -1.35149
L_UpperArm  16.5456 8.06977 -2.40944
L_Forearm  -21.18 7.0689 8.23024
L_Hand  0.45765 11.8598 3.26465
L_Thigh  -8.88787 5.4664 -27.1836
L_Calf  12.4376 -2.18709 15.7936
L_Foot  -2.365 -4.56782 -7.71335
L_Toe0  0.507604 0.0344269 -6.13393
R_Thigh  3.31041 1.98685 5.45605
R_Calf  -7.55355 13.8097 43.8725
R_Foot  3.78918 5.81894 -37.1904
R_Toe0  -3.6557 -0.27039 -15.6358
234
root  -15.9276 36.6893 14.9578 -110.191 6.6516 81.6525
Spine  -13.9324 -15.2722 -14.0967
Spine1  -15.3107 24.9948 -9.17272
Neck  3.97569e-016 0 -2.38542e-015
Head  41.3333 3.72223 6.71
R_Clavicle  0.380544 -17.349 1.21858
R_UpperArm  9.0356 -13.4352 48.5442
R_Forearm  11.2994 29.111 -27.5731
R_Hand  0.193371 6.19811 -8.24711
L_Clavicle  -0.266305 11.666 -1.56275
L_UpperArm  15.4952 9.15077 -1.30898
L_Forearm  -21.4695 4.38622 5.07631
L_Hand  0.730251 12.5044 4.86734
L_Thigh  -10.1636 3.50072 -27.0919
L_Calf  11.3719 -2.82951 20.8011
L_Foot  -2.81712 -4.83274 -10.354
L_Toe0  0.506646 0.0344344 -6.13478
R_Thigh  2.62463 1.5053 6.3576
R_Calf  -4.93935 12.1541 40.7069
R_Foot  3.60501 1.77445 -33.1935
R_Toe0  -1.56261 -0.290243 -17.5262
235
root  -16.1549 36.4735 16.3942 -109.337 7.2135 83.0916
Spine  -12.942 -12.953 -12.9856
Spine1  -14.6483 23.8214 -10.4957
Neck  3.97569e-016 0 -2.38542e-015
Head  41.8422 3.18829 6.34631
R_Clavicle  0.366656 -17.0924 0.972928
R_UpperArm  8.83882 -13.4586 44.657
R_Forearm  11.6931 29.7214 -28.3283
R_Hand  -0.368871 8.59881 -14.3261
L_Clavicle  -0.274876 11.9503 -1.66095
L_UpperArm  14.5291 9.70043 -0.465192
L_Forearm  -23.2084 1.93259 2.22537
L_Hand  0.764209 11.8753 5.27303
L_Thigh  -11.5086 2.62462 -26.4051
L_Calf  10.6988 -3.14297 23.3449
L_Foot  -2.99827 -5.10268 -11.2691
L_Toe0  0.505879 0.0344404 -6.13546
R_Thigh  -0.306109 1.24513 6.66331
R_Calf  -4.12074 10.5928 35.5045
R_Foot  3.20655 -0.271454 -29.3621
R_Toe0  -1.81054 -0.272962 -17.336
236
root  -16.3663 35.8853 17.9532 -107.736 7.655 84.3529
Spine  -11.7786 -11.6644 -11.6141
Spine1  -13.5955 23.4603 -11.0337
Neck  3.97569e-016 0 -2.38542e-015
Head  41.5383 2.70402 5.33339
R_Clavicle  0.351786 -16.889 0.714238
R_UpperArm  10.061 -12.3823 40.9132
R_Forearm  11.4631 29.7807 -28.4021
R_Hand  -1.06417 10.207 -19.5544
L_Clavicle  -0.290544 12.3034 -1.65139
L_UpperArm  13.1928 9.27055 -0.242004
L_Forearm  -24.9571 0.143665 0.156225
L_Hand  0.463769 10.2674 3.60469
L_Thigh  -11.6035 1.91055 -24.5708
L_Calf  11.0343 -3.22087 24.0297
L_Foot  -2.84598 -4.84477 -10.5247
L_Toe0  0.505356 0.0344445 -6.13592
R_Thigh  -4.56674 0.893749 6.9653
R_Calf  -5.6902 8.96757 29.2358
R_Foot  2.51902 -2.28714 -24.6031
R_Toe0  -1.8757 -0.235517 -17.3709
